<?xml version="1.0" encoding="utf-8"?>
<svg version="1.1" xmlns:xlink="http://www.w3.org/1999/xlink" width="16px" height="16px" viewBox="373 725  16 16" xmlns="http://www.w3.org/2000/svg">
  <path d="M 381 725  C 385.48 725  389 728.52  389 733  C 389 737.48  385.48 741  381 741  C 376.52 741  373 737.48  373 733  C 373 728.52  376.52 725  381 725  Z " fill-rule="nonzero" fill="#ffffff" stroke="none" />
  <path d="M 381 725.5  C 385.2 725.5  388.5 728.8  388.5 733  C 388.5 737.2  385.2 740.5  381 740.5  C 376.8 740.5  373.5 737.2  373.5 733  C 373.5 728.8  376.8 725.5  381 725.5  Z " stroke-width="1" stroke="#8c8c8c" fill="none" />
  <path d="M 381 737  C 378.76 737  377 735.24  377 733  C 377 730.76  378.76 729  381 729  C 383.24 729  385 730.76  385 733  C 385 735.24  383.24 737  381 737  " fill-rule="nonzero" fill="#8c8c8c" stroke="none" />
</svg>