<?xml version="1.0" encoding="utf-8"?>
<svg version="1.1" xmlns:xlink="http://www.w3.org/1999/xlink" width="40px" height="40px" xmlns="http://www.w3.org/2000/svg">
  <defs>
    <filter x="118px" y="363px" width="40px" height="40px" filterUnits="userSpaceOnUse" id="filter11">
      <feOffset dx="1" dy="1" in="SourceAlpha" result="shadowOffsetInner" />
      <feGaussianBlur stdDeviation="2.5" in="shadowOffsetInner" result="shadowGaussian" />
      <feComposite in2="shadowGaussian" operator="atop" in="SourceAlpha" result="shadowComposite" />
      <feColorMatrix type="matrix" values="0 0 0 0 0  0 0 0 0 0  0 0 0 0 0  0 0 0 0.698039215686274 0  " in="shadowComposite" />
    </filter>
    <g id="widget12">
      <path d="M 137 367  C 145.4 367  152 373.6  152 382  C 152 390.4  145.4 397  137 397  C 128.6 397  122 390.4  122 382  C 122 373.6  128.6 367  137 367  Z " fill-rule="nonzero" fill="#009dd9" stroke="none" />
      <path d="M 137 367.5  C 145.12 367.5  151.5 373.88  151.5 382  C 151.5 390.12  145.12 396.5  137 396.5  C 128.88 396.5  122.5 390.12  122.5 382  C 122.5 373.88  128.88 367.5  137 367.5  Z " stroke-width="1" stroke="#ffffff" fill="none" />
    </g>
  </defs>
  <g transform="matrix(1 0 0 1 -118 -363 )">
    <use xlink:href="#widget12" filter="url(#filter11)" />
    <use xlink:href="#widget12" />
  </g>
</svg>