<?xml version="1.0" encoding="utf-8"?>
<svg version="1.1" xmlns:xlink="http://www.w3.org/1999/xlink" width="29px" height="50px" xmlns="http://www.w3.org/2000/svg">
  <defs>
    <filter x="136px" y="68px" width="29px" height="50px" filterUnits="userSpaceOnUse" id="filter19">
      <feOffset dx="1" dy="1" in="SourceAlpha" result="shadowOffsetInner" />
      <feGaussianBlur stdDeviation="2.5" in="shadowOffsetInner" result="shadowGaussian" />
      <feComposite in2="shadowGaussian" operator="atop" in="SourceAlpha" result="shadowComposite" />
      <feColorMatrix type="matrix" values="0 0 0 0 0  0 0 0 0 0  0 0 0 0 0  0 0 0 0.698039215686274 0  " in="shadowComposite" />
    </filter>
    <g id="widget20">
      <path d="M 149.5 110.660193516429  C 145.9 101.175503702418  140.5 95.4846898140113  140.5 86  C 140.5 80.9857142857143  142.3 72.5  149.5 72.5  C 156.7 72.5  158.5 80.9857142857143  158.5 86  C 158.5 95.4846898140113  153.1 101.175503702418  149.5 110.660193516429  Z " fill-rule="nonzero" fill="#009dd9" stroke="none" />
      <path d="M 149.5 112  C 145.7 102  140 96  140 86  C 140 80.8  141.9 72  149.5 72  C 157.1 72  159 80.8  159 86  C 159 96  153.3 102  149.5 112  Z M 149.5 109.320387032859  C 152.9 100.351007404836  158 94.9693796280226  158 86  C 158 81.1714285714286  156.3 73  149.5 73  C 142.7 73  141 81.1714285714286  141 86  C 141 94.9693796280226  146.1 100.351007404836  149.5 109.320387032859  Z " fill-rule="nonzero" fill="#ffffff" stroke="none" />
    </g>
  </defs>
  <g transform="matrix(1 0 0 1 -136 -68 )">
    <use xlink:href="#widget20" filter="url(#filter19)" />
    <use xlink:href="#widget20" />
  </g>
</svg>